<?xml version="1.0" encoding="UTF-8"?>
<svg id="_图层_2" data-name="图层 2" xmlns="http://www.w3.org/2000/svg" viewBox="0 0 319.18 168.09">
  <defs>
    <style>
      .cls-1 {
        fill: none;
        stroke: #000;
        stroke-miterlimit: 10;
      }
    </style>
  </defs>
  <g id="hover">
    <path class="cls-1" d="M297.7,48v40.76l20.89,69.4-7.41,4.38-9.1,2.02h-28.97l-9.77-1.68-9.77-5.39,19.54-67.37v-42.11h24.59ZM108.04,157.82l50.53,3.71,67.71-4.38V37.89l-69.73-2.69-48.51,2.69v119.93ZM62.75.5v65.49l-17.38,13.68v35.13l-7.85-23.55v-34.2h-19.06v34.57L.52,149.56l1.31,4.67,11.59,3.59h30.96v3.71l7.07,3.03,13.47,3.03h17.52l12.46-3.03,6.06-3.03v-83.21l-18.53-12.09V.5h-19.69Z"/>
  </g>
</svg>