<?xml version="1.0" encoding="UTF-8"?>
<svg id="_图层_2" data-name="图层 2" xmlns="http://www.w3.org/2000/svg" viewBox="0 0 166.73 149.02">
  <defs>
    <style>
      .cls-1 {
        fill: none;
        stroke: #000;
        stroke-miterlimit: 10;
      }
    </style>
  </defs>
  <g id="hover">
    <polygon class="cls-1" points="8.6 .5 8.6 90.82 5.97 90.82 .5 112.48 .5 128.07 74.19 128.07 74.19 112.89 72.57 100.95 78.24 100.95 78.24 116.33 79.25 130.5 83.3 132.93 83.3 139.81 99.49 148.52 119.53 148.52 133.3 142.65 140.38 118.36 142 103.38 159.21 87.18 165.28 76.65 146.05 88.8 152.53 66.94 145.24 64.1 147.67 37.79 131.07 32.93 92.2 32.93 74.39 36.98 75.4 61.07 68.52 69.57 74.19 78.48 65.89 86.37 65.89 .5 8.6 .5"/>
  </g>
</svg>