<?xml version="1.0" encoding="UTF-8"?>
<svg id="_图层_2" data-name="图层 2" xmlns="http://www.w3.org/2000/svg" viewBox="0 0 307.34 142.73">
  <defs>
    <style>
      .cls-1 {
        fill: none;
        stroke: #000;
        stroke-miterlimit: 10;
      }
    </style>
  </defs>
  <g id="hover">
    <path class="cls-1" d="M51.11.5v48.35l20.12,66.28V33.18h38.33v105.87l-6.56,3.18h-25.62l-5.93-2.33v-6.56l-15.88,4.87H12.46l-11.96-6.14v-9.53L24.42,49.7V.5h26.68ZM159.52,11.58v45.74l-23.08,65.64v6.78l5.19,5.19,12.39,3.07h35.09l9.16-2.96v2.96l9.1,4.23h32.18l6.78-4.66v-60.66l-11.65-5.54v-6.85h-11.65l-2.75-20.96-4.02,20.96h-8.26v6.85l-9.95,6.92v20.75l-15.46-41.93V11.58h-23.08ZM263.35,61.94v21.65l-5,37.38v9.25l2.5,5.74,10.64,5.18h26.65l6.11-5.92,2.59-5.55v-9.62l-6.29-37.2v-20.91h-37.2Z"/>
  </g>
</svg>